<svg xmlns="http://www.w3.org/2000/svg" width="64" height="64" viewBox="0 0 32 32" fill="none">
  <defs>
    <radialGradient id="i" cx="0.42" cy="0.38" r="0.7">
      <stop offset="0" stop-color="#efe9ff"/>
      <stop offset="0.55" stop-color="#b9a4ff"/>
      <stop offset="1" stop-color="#7c5cf0"/>
    </radialGradient>
    <linearGradient id="b" x1="0" y1="0" x2="0" y2="1">
      <stop offset="0" stop-color="#b9a4ff" stop-opacity="0.55"/>
      <stop offset="1" stop-color="#7c5cf0" stop-opacity="0.08"/>
    </linearGradient>
  </defs>
  <rect width="32" height="32" rx="7" fill="#07031d"/>
  <g transform="translate(1.6 1.4) scale(0.9)">
    <path d="M16 .6l.45 1.25L17.7 2.3l-1.25.45L16 4l-.45-1.25L14.3 2.3l1.25-.45Z" fill="#d9ccff"/>
    <path d="M13.3 14.6h5.4l3.3 6.4H10Z" fill="url(#b)"/>
    <path d="M3.6 10.2Q16 1.6 28.4 10.2 16 18.8 3.6 10.2Z" fill="#160f33" stroke="#d9ccff" stroke-width="1.3" stroke-linejoin="round"/>
    <circle cx="16" cy="10.2" r="4.4" fill="url(#i)"/>
    <path d="M16 6.3q1.35 3.9 0 7.8-1.35-3.9 0-7.8Z" fill="#07031d"/>
    <path d="M9.6 20.6h12.8l3.6 8.3H6Z" fill="#1b1450" stroke="#9a7ff7" stroke-width="1.3" stroke-linejoin="round"/>
    <ellipse cx="16" cy="24.4" rx="4.4" ry="1.7" stroke="#b9a4ff" stroke-width="1" fill="#b9a4ff" fill-opacity="0.12"/>
  </g>
</svg>
